<mxfile host="app.diagrams.net" agent="Mozilla/5.0 (Windows NT 10.0; Win64; x64) AppleWebKit/537.36 (KHTML, like Gecko) Chrome/134.0.0.0 Safari/537.36" version="26.1.1">
  <diagram name="Page-1" id="lSGF1u1k3wypR4kYBdDz">
    <mxGraphModel dx="794" dy="1546" grid="1" gridSize="10" guides="1" tooltips="1" connect="1" arrows="1" fold="1" page="1" pageScale="1" pageWidth="850" pageHeight="1100" math="0" shadow="0">
      <root>
        <mxCell id="0" />
        <mxCell id="1" parent="0" />
        <mxCell id="CFbLDCY4ZLuh2Sqyp-87-1" value="Shufuti" style="text;html=1;align=center;verticalAlign=middle;whiteSpace=wrap;rounded=0;" vertex="1" parent="1">
          <mxGeometry x="80" y="-360" width="60" height="30" as="geometry" />
        </mxCell>
        <mxCell id="CFbLDCY4ZLuh2Sqyp-87-2" value="SharApu" style="text;html=1;align=center;verticalAlign=middle;whiteSpace=wrap;rounded=0;" vertex="1" parent="1">
          <mxGeometry x="80" y="-150" width="60" height="30" as="geometry" />
        </mxCell>
        <mxCell id="CFbLDCY4ZLuh2Sqyp-87-4" value="&lt;h1 style=&quot;margin-top: 0px;&quot;&gt;Shufuti vs SharApu (Home Page)&lt;/h1&gt;" style="text;html=1;whiteSpace=wrap;overflow=hidden;rounded=0;" vertex="1" parent="1">
          <mxGeometry x="250" y="-440" width="390" height="40" as="geometry" />
        </mxCell>
        <mxCell id="CFbLDCY4ZLuh2Sqyp-87-5" value="Home Page" style="rounded=1;whiteSpace=wrap;html=1;" vertex="1" parent="1">
          <mxGeometry x="140" y="-270" width="120" height="60" as="geometry" />
        </mxCell>
      </root>
    </mxGraphModel>
  </diagram>
</mxfile>
